<?xml version="1.0" standalone="no"?>
<!DOCTYPE svg PUBLIC "-//W3C//DTD SVG 20010904//EN"
 "http://www.w3.org/TR/2001/REC-SVG-20010904/DTD/svg10.dtd">
<svg version="1.0" xmlns="http://www.w3.org/2000/svg"
 width="1220.000000pt" height="1620.000000pt" viewBox="0 0 1220.000000 1620.000000"
 preserveAspectRatio="xMidYMid meet"   

>

<g transform="translate(0.000000,1620.000000) scale(0.100000,-0.100000)"
fill="#000000" stroke="none">
<path d="M4310 14175 c0 -2 26 -44 58 -93 144 -219 240 -453 284 -692 16 -91
21 -357 8 -435 -45 -256 -144 -473 -310 -676 -25 -30 -90 -105 -144 -165 -131
-144 -192 -222 -251 -319 -71 -117 -120 -228 -151 -341 -36 -134 -39 -336 -5
-459 46 -170 131 -326 247 -454 55 -60 59 -63 64 -40 6 25 4 38 -25 199 -21
116 -15 271 15 375 80 279 295 600 670 1000 241 257 349 440 396 668 24 120
15 320 -20 442 -48 163 -147 342 -275 499 -102 126 -314 326 -431 406 -19 13
-37 27 -40 31 -8 10 -90 60 -90 54z"/>
<path d="M6237 13802 l-127 -127 0 -52 c0 -48 2 -53 25 -59 14 -3 37 -4 52 -1
56 11 53 76 53 -1019 0 -803 -3 -1016 -12 -1019 -7 -3 -53 -10 -103 -15 -49
-6 -124 -15 -165 -20 -205 -25 -333 -40 -410 -50 -47 -5 -120 -14 -162 -20
-43 -5 -114 -14 -158 -20 -44 -5 -117 -15 -163 -21 l-82 -11 -142 -141 c-79
-78 -143 -145 -143 -149 0 -4 321 -9 713 -10 l712 -3 5 -4055 5 -4055 81 -165
c138 -280 251 -514 256 -530 3 -8 71 120 152 285 81 165 159 323 174 350 l27
50 5 4060 5 4060 713 3 c391 1 712 6 712 10 0 4 -64 71 -142 149 -157 154
-141 146 -298 163 -41 5 -129 15 -195 24 -66 8 -158 20 -205 25 -107 13 -391
48 -490 61 -41 6 -104 14 -140 18 l-65 7 -3 1017 -2 1017 62 3 63 3 3 54 3 55
-128 128 -128 128 -115 0 -115 0 -128 -128z"/>
<path d="M2235 11794 c-114 -267 -227 -626 -290 -919 -9 -44 -20 -98 -25 -120
-5 -22 -16 -85 -24 -140 -9 -55 -21 -125 -26 -155 -49 -292 -49 -1002 0 -1290
111 -643 275 -1076 604 -1592 52 -83 199 -284 259 -355 149 -178 399 -436 547
-564 393 -339 812 -615 1330 -874 134 -67 177 -88 375 -178 312 -141 742 -371
963 -515 l22 -14 0 2395 c0 2273 -1 2396 -17 2401 -49 15 -333 37 -533 41
-450 10 -665 34 -950 107 -474 122 -784 376 -918 753 -41 116 -62 251 -62 410
0 154 16 267 65 465 20 79 -162 -268 -229 -438 -220 -553 -192 -1042 82 -1437
193 -279 532 -533 947 -710 72 -31 139 -59 150 -64 228 -98 690 -220 1045
-276 174 -28 183 -30 187 -41 2 -7 -6 -14 -19 -17 -13 -2 -61 -18 -108 -35
-213 -77 -400 -112 -594 -112 -211 0 -351 42 -519 153 -88 59 -145 108 -352
307 -160 153 -239 221 -330 286 -205 146 -350 209 -652 284 -262 65 -406 142
-552 296 -205 215 -325 518 -382 964 -28 213 -15 724 23 948 12 75 6 89 -17
36z"/>
<path d="M6990 6850 l0 -2701 58 -97 c130 -216 204 -412 247 -656 17 -96 20
-375 5 -462 -22 -119 -42 -220 -51 -249 -84 -285 -216 -548 -408 -815 -194
-271 -483 -574 -779 -818 -56 -47 -101 -87 -99 -89 7 -7 375 220 617 382 257
171 516 360 735 535 224 179 335 277 657 580 108 101 406 429 549 605 198 243
455 621 597 880 59 107 209 418 247 510 92 223 190 511 231 675 73 299 113
518 133 735 7 66 16 150 21 188 13 87 13 606 0 694 -5 38 -17 141 -25 231 -9
89 -23 199 -32 245 -8 45 -21 118 -29 162 -71 402 -239 914 -417 1274 l-62
125 -2 -44 c-5 -96 -25 -289 -39 -380 -54 -344 -149 -513 -369 -655 -223 -145
-306 -226 -387 -383 -91 -174 -128 -325 -128 -516 0 -175 26 -285 107 -441 50
-97 102 -170 187 -262 61 -66 46 -68 -31 -5 -240 201 -447 540 -581 952 -71
220 -95 317 -141 563 -57 301 -73 447 -101 892 -10 165 -19 209 -64 330 -64
167 -158 307 -306 455 -99 100 -234 205 -317 249 l-23 12 0 -2701z"/>
<path d="M8310 9131 c0 -5 4 -13 10 -16 16 -10 88 -139 120 -213 36 -85 64
-191 81 -305 10 -71 10 -103 -1 -175 -33 -220 -109 -360 -320 -589 -108 -117
-196 -279 -221 -404 -16 -83 -6 -229 21 -308 24 -67 100 -190 145 -231 l27
-25 -6 55 c-18 155 -18 242 -1 304 48 173 179 372 398 606 106 112 165 193
211 287 37 74 66 190 66 260 0 123 -67 295 -167 428 -74 98 -212 233 -309 301
-46 32 -54 36 -54 25z"/>
</g>
</svg>
